<svg width="79" height="79" viewBox="0 0 79 79" fill="none" xmlns="http://www.w3.org/2000/svg">
<path d="M9.875 0C7.25599 0 4.74424 1.0404 2.89232 2.89232C1.0404 4.74424 0 7.25599 0 9.875L0 69.125C0 71.744 1.0404 74.2558 2.89232 76.1077C4.74424 77.9596 7.25599 79 9.875 79H69.125C71.744 79 74.2558 77.9596 76.1077 76.1077C77.9596 74.2558 79 71.744 79 69.125V9.875C79 7.25599 77.9596 4.74424 76.1077 2.89232C74.2558 1.0404 71.744 0 69.125 0L9.875 0ZM59.3981 24.5394C60.0839 25.2245 60.4738 26.1512 60.4839 27.1205C60.4941 28.0898 60.1237 29.0244 59.4524 29.7237L39.7419 54.3619C39.4032 54.7267 38.9943 55.0196 38.5398 55.2228C38.0853 55.4261 37.5945 55.5356 37.0967 55.5448C36.5989 55.554 36.1043 55.4627 35.6426 55.2765C35.1809 55.0902 34.7615 54.8127 34.4094 54.4606L21.3497 41.396C20.9859 41.057 20.6941 40.6482 20.4917 40.1939C20.2893 39.7397 20.1805 39.2493 20.1717 38.7521C20.1629 38.2549 20.2544 37.761 20.4406 37.2999C20.6269 36.8388 20.9041 36.4199 21.2557 36.0682C21.6074 35.7166 22.0263 35.4394 22.4874 35.2531C22.9485 35.0669 23.4424 34.9754 23.9396 34.9842C24.4368 34.993 24.9272 35.1018 25.3814 35.3042C25.8357 35.5066 26.2445 35.7984 26.5835 36.1622L36.9226 46.4964L54.0706 24.648C54.4086 24.2825 54.817 23.9889 55.2711 23.7848C55.7253 23.5807 56.2159 23.4702 56.7137 23.4601C57.2115 23.45 57.7063 23.5403 58.1683 23.7258C58.6304 23.9112 59.0504 24.1879 59.4031 24.5394H59.3981Z" fill="#02B4A9"/>
</svg>
