<svg width="103" height="117" viewBox="0 0 103 117" fill="none" xmlns="http://www.w3.org/2000/svg">
<path d="M93.5872 104.047L102.795 0.498047H0.375687L0.496015 1.84178L9.56881 104.062L9.64582 104.912L51.1978 116.503H51.8524L93.5006 104.903L93.5776 104.052L93.5872 104.047ZM51.6743 23.1142H81.434L80.5388 33.5547L51.1785 46.6633L51.6695 49.0221H79.22L76.0481 85.5203L51.5684 92.3356L27.0983 85.5299L25.5581 68.0518H35.632L36.4406 76.9117L36.5177 77.7721L51.3662 81.7356H52.0064L66.6913 77.6367L66.7635 76.7812L68.1497 60.4148L68.2604 59.0807H24.7158L23.8013 48.5774L54.1675 35.522L53.6862 33.1535H22.4969L21.6065 23.0997H51.6406L51.6743 23.1142Z" fill="white"/>
</svg>
