<svg width="73" height="47" viewBox="0 0 73 47" fill="none" xmlns="http://www.w3.org/2000/svg">
<path d="M23.4509 0C17.2313 0 11.2665 2.47589 6.8686 6.88299C2.47071 11.2901 0 17.2674 0 23.5C0 29.7326 2.47071 35.7099 6.8686 40.117C11.2665 44.5241 17.2313 47 23.4509 47H49.5491C55.7687 47 61.7335 44.5241 66.1314 40.117C70.5293 35.7099 73 29.7326 73 23.5C73 17.2674 70.5293 11.2901 66.1314 6.88299C61.7335 2.47589 55.7687 0 49.5491 0H23.4509ZM13.0387 23.5C13.0387 22.8075 13.3132 22.1433 13.8019 21.6537C14.2905 21.164 14.9533 20.8889 15.6443 20.8889H20.8557V15.6667C20.8557 14.9742 21.1302 14.31 21.6188 13.8203C22.1075 13.3307 22.7702 13.0556 23.4613 13.0556C24.1524 13.0556 24.8151 13.3307 25.3038 13.8203C25.7924 14.31 26.067 14.9742 26.067 15.6667V20.8889H31.2783C31.9693 20.8889 32.6321 21.164 33.1207 21.6537C33.6094 22.1433 33.8839 22.8075 33.8839 23.5C33.8839 24.1925 33.6094 24.8567 33.1207 25.3463C32.6321 25.836 31.9693 26.1111 31.2783 26.1111H26.067V31.3333C26.067 32.0258 25.7924 32.69 25.3038 33.1797C24.8151 33.6693 24.1524 33.9444 23.4613 33.9444C22.7702 33.9444 22.1075 33.6693 21.6188 33.1797C21.1302 32.69 20.8557 32.0258 20.8557 31.3333V26.1111H15.6443C14.9533 26.1111 14.2905 25.836 13.8019 25.3463C13.3132 24.8567 13.0387 24.1925 13.0387 23.5V23.5ZM52.1027 31.3333C52.1027 32.7184 51.5536 34.0466 50.5763 35.026C49.599 36.0054 48.2735 36.5556 46.8913 36.5556C45.5092 36.5556 44.1837 36.0054 43.2064 35.026C42.2291 34.0466 41.68 32.7184 41.68 31.3333C41.68 29.9483 42.2291 28.62 43.2064 27.6407C44.1837 26.6613 45.5092 26.1111 46.8913 26.1111C48.2735 26.1111 49.599 26.6613 50.5763 27.6407C51.5536 28.62 52.1027 29.9483 52.1027 31.3333V31.3333ZM52.1027 20.8889C50.7205 20.8889 49.395 20.3387 48.4177 19.3593C47.4404 18.38 46.8913 17.0517 46.8913 15.6667C46.8913 14.2816 47.4404 12.9534 48.4177 11.974C49.395 10.9946 50.7205 10.4444 52.1027 10.4444C53.4848 10.4444 54.8103 10.9946 55.7876 11.974C56.7649 12.9534 57.314 14.2816 57.314 15.6667C57.314 17.0517 56.7649 18.38 55.7876 19.3593C54.8103 20.3387 53.4848 20.8889 52.1027 20.8889Z" fill="white"/>
</svg>
