<svg width="104" height="103" viewBox="0 0 104 103" fill="none" xmlns="http://www.w3.org/2000/svg">
<path d="M92.197 0.498047H11.7248C5.66658 0.498047 0.751373 5.41325 0.751373 11.4715V91.9437C0.751373 98.0019 5.66658 102.917 11.7248 102.917H92.197C98.2553 102.917 103.17 98.0019 103.17 91.9437V11.4715C103.17 5.41325 98.2553 0.498047 92.197 0.498047ZM56.4875 80.3758C56.4875 90.3434 50.635 94.8928 42.1077 94.8928C34.4034 94.8928 29.9454 90.9149 27.6592 86.0912L35.5007 81.3588C37.0096 84.0336 38.3812 86.2969 41.6962 86.2969C44.851 86.2969 46.8628 85.0624 46.8628 80.2386V47.524H56.4875V80.3758V80.3758ZM79.2574 94.8928C70.3186 94.8928 64.5347 90.6406 61.7227 85.0624L69.5642 80.5358C71.6217 83.8965 74.3194 86.3884 79.0517 86.3884C83.0296 86.3884 85.5901 84.3994 85.5901 81.6332C85.5901 78.3411 82.9838 77.1752 78.5716 75.232L76.1712 74.2032C69.2213 71.2541 64.6261 67.5277 64.6261 59.6862C64.6261 52.462 70.1357 46.9753 78.7088 46.9753C84.8356 46.9753 89.225 49.1014 92.3799 54.6796L84.8813 59.4805C83.2353 56.5314 81.4521 55.3654 78.6859 55.3654C75.874 55.3654 74.0908 57.1486 74.0908 59.4805C74.0908 62.361 75.874 63.5269 80.0119 65.333L82.4123 66.3618C90.5967 69.8596 95.1918 73.4488 95.1918 81.496C95.1918 90.1376 88.3791 94.8928 79.2574 94.8928V94.8928Z" fill="white"/>
</svg>
