<svg width="47" height="47" viewBox="0 0 47 47" fill="none" xmlns="http://www.w3.org/2000/svg">
<path d="M43.2088 0.862891C43.4842 1.14746 43.6953 1.46875 43.8422 1.8084C43.9891 2.14805 44.0625 2.52441 44.0625 2.92832V11.75C44.0625 13.3748 42.7498 14.6875 41.125 14.6875C39.5002 14.6875 38.1875 13.3748 38.1875 11.75V10.0334L28.5121 19.6996C27.4289 20.7828 25.6848 20.8563 24.5189 19.8557L16.1562 12.6771L7.78438 19.8557C6.5543 20.9113 4.7 20.7645 3.64434 19.5344C2.58867 18.3043 2.73555 16.45 3.96563 15.3943L14.2469 6.58184C15.3484 5.63633 16.9732 5.63633 18.0748 6.58184L26.2906 13.6227L34.0291 5.875H32.3125C30.6877 5.875 29.375 4.5623 29.375 2.9375C29.375 1.3127 30.6877 0 32.3125 0H41.125C41.9328 0 42.6672 0.330469 43.1996 0.853711L43.2088 0.862891V0.862891ZM0 27.9062C0 25.4736 1.97363 23.5 4.40625 23.5H42.5938C45.0264 23.5 47 25.4736 47 27.9062V42.5938C47 45.0264 45.0264 47 42.5938 47H4.40625C1.97363 47 0 45.0264 0 42.5938V27.9062ZM4.40625 38.1875V42.5938H8.8125C8.8125 40.1611 6.83887 38.1875 4.40625 38.1875ZM8.8125 27.9062H4.40625V32.3125C6.83887 32.3125 8.8125 30.3389 8.8125 27.9062ZM42.5938 38.1875C40.1611 38.1875 38.1875 40.1611 38.1875 42.5938H42.5938V38.1875ZM38.1875 27.9062C38.1875 30.3389 40.1611 32.3125 42.5938 32.3125V27.9062H38.1875ZM29.375 35.25C29.375 32.0096 26.7404 29.375 23.5 29.375C20.2596 29.375 17.625 32.0096 17.625 35.25C17.625 38.4904 20.2596 41.125 23.5 41.125C26.7404 41.125 29.375 38.4904 29.375 35.25Z" fill="white"/>
</svg>
