<svg width="48" height="47" viewBox="0 0 48 47" fill="none" xmlns="http://www.w3.org/2000/svg">
<path d="M46.9838 11.9957C46.9838 10.5504 46.8619 9.11094 46.5168 7.70383C45.8969 5.14079 44.4355 3.18288 42.2484 1.74493C41.1233 1.01053 39.8852 0.559611 38.5691 0.321666C37.5585 0.144849 36.5355 0.04761 35.5096 0.0308447C35.4332 0.0235007 35.3495 0.00734398 35.2643 0H11.7181C11.4199 0.0235007 11.1217 0.0381887 10.8236 0.0528766C9.3621 0.136598 7.90947 0.289353 6.53174 0.840151C3.91581 1.87271 2.02547 3.67787 0.923873 6.2791C0.541986 7.15891 0.349573 8.0916 0.212975 9.04044C0.0984093 9.80568 0.0367199 10.5783 0.014688 11.3509C0.014688 11.4125 0 11.4728 0 11.5345V35.4714L0.0455327 36.2984C0.145411 37.8979 0.351042 39.4812 1.02522 40.95C2.29573 43.7275 4.42989 45.5547 7.36014 46.4345C8.17826 46.6871 9.03603 46.8017 9.89234 46.8781C10.9792 46.9853 12.0647 47 13.1516 47H34.7546C35.7799 47 36.8051 46.931 37.8303 46.8017C39.4445 46.5946 40.9588 46.1202 42.3292 45.2183C43.9513 44.1675 45.2304 42.6648 46.0086 40.8957C46.3758 40.0688 46.5829 39.1904 46.7356 38.3018C46.9574 36.9784 47.0029 35.6389 47.0029 34.3008C46.9956 26.8643 47.0029 19.4292 46.9956 11.9927L46.9838 11.9957ZM34.4065 19.8052V30.9901C34.4065 31.8082 34.292 32.6117 33.9248 33.3534C33.3593 34.5079 32.4413 35.2349 31.209 35.5875C30.5263 35.7831 29.8226 35.896 29.113 35.9238C28.2207 35.9766 27.3401 35.6993 26.6389 35.1449C25.9377 34.5905 25.4648 33.7976 25.3103 32.9172C25.1687 32.125 25.2911 31.3083 25.6586 30.5924C26.0261 29.8765 26.6184 29.3011 27.3446 28.9544C27.9717 28.6489 28.6533 28.4653 29.3333 28.3272C30.0751 28.1671 30.8168 28.0217 31.5512 27.8528C32.0947 27.7309 32.4457 27.4019 32.5529 26.8422C32.5838 26.7203 32.5911 26.5896 32.5911 26.4677V15.8042C32.5885 15.6826 32.5707 15.5617 32.5382 15.4444C32.4619 15.1462 32.2474 14.97 31.9419 14.9847C31.6276 14.9993 31.3221 15.0537 31.0166 15.1154C29.5243 15.4062 28.0334 15.7044 26.5485 16.0099L19.3044 17.4713C19.2735 17.4787 19.2354 17.4948 19.2045 17.4948C18.6611 17.6476 18.4701 17.8929 18.4466 18.4584C18.4393 18.5421 18.4466 18.6273 18.4466 18.711C18.4393 23.8062 18.4466 28.9015 18.4393 33.9953C18.4393 34.8222 18.3467 35.633 18.0192 36.3968C17.4757 37.6511 16.5122 38.4399 15.2123 38.8144C14.5251 39.0144 13.8155 39.1274 13.1002 39.1508C11.226 39.2198 9.66468 37.9728 9.34448 36.1294C9.06835 34.5387 9.7954 32.8247 11.6006 32.0594C12.3041 31.7686 13.0312 31.6085 13.7729 31.4557L15.4561 31.112C16.2052 30.9519 16.5959 30.4775 16.6341 29.7123V12.025C16.6341 11.7797 16.665 11.5359 16.7178 11.298C16.8559 10.7398 17.2539 10.4182 17.7886 10.2874C18.2865 10.1567 18.7991 10.0657 19.3029 9.95844C20.7409 9.66761 22.1715 9.37679 23.6094 9.09332L28.054 8.19001C29.37 7.93003 30.6773 7.66271 31.9933 7.40273C32.4222 7.31901 32.8584 7.22648 33.2932 7.19563C33.8969 7.14275 34.3184 7.52464 34.3801 8.13713C34.3948 8.28254 34.4036 8.42795 34.4036 8.57336V19.7964L34.4065 19.8052Z" fill="white"/>
</svg>
