<svg width="175" height="119" viewBox="0 0 175 119" fill="none" xmlns="http://www.w3.org/2000/svg">
<path d="M119.934 11.9848C119.086 11.9848 118.52 12.099 117.949 12.2405V12.3275H118.036C118.433 13.0619 119.086 13.6332 119.592 14.3132C119.989 15.0803 120.326 15.8692 120.696 16.6362L120.81 16.522C121.49 16.0378 121.832 15.2762 121.832 14.1119C121.55 13.7692 121.49 13.4047 121.24 13.0891C120.957 12.605 120.331 12.3547 119.934 11.9848ZM42.8044 107.697H36.0932C35.89 97.0109 35.2386 86.3384 34.1407 75.7074H34.0864L23.8618 107.697H18.7332L8.59028 75.7074H8.50326C7.71503 86.3541 7.24347 97.0218 7.08923 107.697H0.970825C1.30212 94.2816 2.29496 80.8912 3.94573 67.5741H12.2722L21.9583 97.0444H22.0127L31.7858 67.5741H39.7153C41.4719 82.1977 42.5216 95.5701 42.8316 107.697H42.8044ZM71.9226 78.0903C69.2033 92.9369 65.5757 103.736 61.1324 110.449C57.6191 115.634 53.7958 118.24 49.6298 118.24C48.5258 118.24 47.1661 117.897 45.5237 117.217V113.648C46.3449 113.763 47.2804 113.844 48.33 113.844C50.2824 113.844 51.8433 113.278 53.0344 112.228C54.4484 110.923 55.1609 109.454 55.1609 107.838C55.1609 106.706 54.6224 104.438 53.4912 100.983L46.1546 78.0903H52.757L58.027 95.2056C59.218 99.1172 59.7293 101.81 59.5008 103.366C62.4159 95.6571 64.4282 87.2137 65.5649 78.0903H71.9226ZM161.317 107.697H142.227V67.5741H148.656V102.768H161.317V107.697ZM137.24 108.665L129.876 105.036C130.529 104.498 131.149 103.905 131.72 103.225C134.863 99.5687 136.424 94.1012 136.424 86.9036C136.424 73.6129 131.214 66.9865 120.788 66.9865C115.687 66.9865 111.695 68.6567 108.834 72.0297C105.718 75.7128 104.13 81.1532 104.13 88.3235C104.13 95.3797 105.517 100.537 108.296 103.85C110.847 106.799 114.67 108.3 119.798 108.3C121.696 108.3 123.453 108.072 125.041 107.593L134.646 113.202L137.278 108.67L137.24 108.665ZM113.365 99.6503C111.722 97.0444 110.928 92.8499 110.928 87.0668C110.928 76.9532 113.99 71.9101 120.136 71.9101C123.339 71.9101 125.716 73.1287 127.217 75.5388C128.832 78.1719 129.653 82.312 129.653 88.0352C129.653 98.2086 126.564 103.339 120.446 103.339C117.215 103.339 114.866 102.12 113.337 99.7102L113.365 99.6503ZM101.351 96.5928C101.351 99.9931 100.105 102.8 97.5818 104.949C95.0909 107.131 91.7734 108.235 87.5531 108.235C83.6155 108.235 79.8466 106.989 76.1375 104.492L77.8669 101.038C81.0376 102.626 83.8983 103.42 86.5088 103.42C88.9181 103.42 90.8162 102.882 92.1759 101.832C93.5355 100.755 94.3567 99.2532 94.3567 97.3545C94.3567 94.9716 92.6871 92.9315 89.6523 91.2341C86.846 89.6782 81.2117 86.4738 81.2117 86.4738C78.1497 84.2379 76.6487 81.855 76.6487 77.9162C76.6487 74.6574 77.7799 72.0515 80.0478 70.0658C82.3429 68.0256 85.258 67.0355 88.8855 67.0355C92.4945 67.0042 96.0325 68.0394 99.0557 70.0114L97.5002 73.466C95.0701 72.3955 92.4488 71.8274 89.7938 71.7958C87.7271 71.7958 86.139 72.3072 85.035 73.2973C83.931 74.2875 83.2511 75.5333 83.2511 77.0947C83.2511 79.4776 84.9534 81.5177 88.0643 83.2695C90.925 84.8254 96.6736 88.1168 96.6736 88.1168C99.8171 90.3256 101.378 92.7084 101.378 96.5874L101.351 96.5928ZM169.366 54.1202C165.483 54.0331 162.48 54.4303 159.962 55.5074C159.255 55.7903 158.091 55.7903 157.977 56.6989C158.374 57.096 158.429 57.7217 158.771 58.2548C159.364 59.2177 160.359 60.5234 161.295 61.2035C162.317 61.9978 163.334 62.792 164.384 63.4721C166.282 64.6363 168.408 65.3164 170.274 66.4752C171.324 67.1552 172.4 68.0311 173.445 68.7438C173.983 69.1137 174.32 69.7666 175 69.9896V69.8482C174.657 69.4238 174.576 68.7982 174.233 68.2922C173.749 67.808 173.271 67.3837 172.787 66.9049C171.368 65.0213 169.668 63.3679 167.745 62.0032C166.19 60.9532 162.79 59.4789 162.165 57.6945L162.078 57.5802C163.128 57.4932 164.373 57.096 165.39 56.8131C167.033 56.3888 168.561 56.4704 170.263 56.046C171.044 55.8433 171.818 55.6165 172.585 55.366V54.9416C171.71 54.0658 171.057 52.8743 170.149 52.0528C167.646 49.8622 164.975 47.8721 162.16 46.1011C160.631 45.111 158.706 44.4853 157.091 43.6638C156.525 43.3809 155.535 43.2395 155.22 42.7553C154.344 41.6781 153.833 40.2908 153.208 39.0123C151.785 36.2465 150.463 33.4302 149.243 30.5689C148.367 28.6703 147.856 26.7988 146.779 25.0416C141.792 16.794 136.353 11.8107 128.027 6.90893C126.243 5.88615 124.089 5.4618 121.822 4.92321C120.603 4.8688 119.412 4.78176 118.194 4.72736C117.4 4.38461 116.639 3.48152 115.959 3.02453C113.185 1.2673 106.044 -2.50285 104.032 2.48594C102.727 5.65765 105.957 8.74776 107.094 10.3363C107.915 11.4679 108.965 12.7192 109.558 13.965C109.9 14.8137 109.982 15.6951 110.324 16.571C111.091 18.6981 111.825 21.0756 112.848 23.0613C113.386 24.0841 113.952 25.1558 114.632 26.0643C115.029 26.6029 115.709 26.8314 115.85 27.7073C115.17 28.6975 115.116 30.1446 114.746 31.336C112.989 36.8308 113.669 43.604 116.133 47.657C116.927 48.8757 118.765 51.5414 121.234 50.5187C123.415 49.6428 122.936 46.89 123.556 44.4527C123.698 43.8597 123.611 43.4897 123.899 43.0926V43.2068C124.606 44.5669 125.286 45.8726 125.911 47.2327C127.385 49.6156 130.018 52.08 132.198 53.723C133.362 54.5989 134.265 56.1059 135.712 56.639V56.4976H135.597C135.287 56.0732 134.89 55.8719 134.493 55.5346C133.575 54.6245 132.723 53.6501 131.943 52.6186C129.93 49.8985 128.119 46.8954 126.531 43.8053C125.766 42.2785 125.068 40.7193 124.438 39.132C124.155 38.5662 124.155 37.6849 123.671 37.402C122.936 38.452 121.86 39.3551 121.348 40.688C120.413 42.7553 120.326 45.334 119.962 47.9998C119.793 48.0542 119.875 47.9998 119.793 48.114C118.238 47.7169 117.699 46.1283 117.128 44.7682C115.654 41.3136 115.426 35.7862 116.677 31.8202C117.019 30.7974 118.461 27.5985 117.895 26.6356C117.585 25.6998 116.622 25.1612 116.111 24.4268C115.458 23.5183 114.806 22.3595 114.354 21.3367C113.191 18.6165 112.625 15.6135 111.352 12.8933C110.787 11.6475 109.764 10.3418 108.943 9.18299C108.008 7.87731 106.991 6.94701 106.278 5.41284C106.022 4.87424 105.685 3.99835 106.082 3.42711C106.169 3.02997 106.365 2.88852 106.762 2.77427C107.388 2.23568 109.199 2.91572 109.824 3.22582C111.608 3.93307 113.109 4.61311 114.61 5.63589C115.29 6.12008 116.024 7.02318 116.905 7.27887H117.928C119.483 7.62161 121.212 7.36592 122.659 7.81746C125.237 8.63895 127.559 9.83039 129.653 11.1306C136.056 15.2424 141.264 20.9693 144.751 27.7345C145.343 28.8389 145.599 29.8617 146.137 31.0205C147.127 33.4306 148.405 35.8352 149.422 38.131C150.439 40.4268 151.407 42.7499 152.876 44.6485C153.61 45.6713 156.503 46.2045 157.83 46.7159C158.793 47.1674 160.294 47.5646 161.143 48.0759C162.812 49.0987 164.455 50.2575 166.015 51.3891C166.81 51.9277 169.219 53.1463 169.36 54.1093L169.366 54.1202Z" fill="white"/>
</svg>
