<svg width="192" height="118" viewBox="0 0 192 118" fill="none" xmlns="http://www.w3.org/2000/svg">
<path d="M94.5705 117.24C93.9448 117.24 93.3191 117.062 92.753 116.764L87.0325 113.374C86.1685 112.898 86.5856 112.72 86.8836 112.63C88.0157 112.244 88.2541 112.155 89.4757 111.441C89.5948 111.381 89.7736 111.411 89.8928 111.471L94.3023 114.088C94.4513 114.177 94.6896 114.177 94.8386 114.088L112.06 104.155C112.209 104.065 112.328 103.887 112.328 103.679V83.8425C112.328 83.6343 112.238 83.4559 112.06 83.3667L94.8386 73.4634C94.6896 73.3742 94.4811 73.3742 94.3023 73.4634L77.0813 83.3667C76.9025 83.4559 76.8131 83.6641 76.8131 83.8425V103.679C76.8131 103.857 76.9323 104.036 77.0813 104.125L81.7888 106.831C84.3511 108.11 85.9301 106.593 85.9301 105.106V85.5079C85.9301 85.2403 86.1387 85.0024 86.4366 85.0024H88.6116C88.8798 85.0024 89.1181 85.2105 89.1181 85.5079V105.106C89.1181 108.526 87.2709 110.459 84.0233 110.459C83.0401 110.459 82.2357 110.459 80.0607 109.389L75.532 106.801C74.4296 106.147 73.7145 104.958 73.7145 103.679V83.8425C73.7145 82.5637 74.3998 81.3444 75.532 80.7199L92.753 70.7869C93.8554 70.1623 95.2855 70.1623 96.3581 70.7869L113.579 80.7199C114.682 81.3741 115.397 82.5637 115.397 83.8425V103.679C115.397 104.958 114.711 106.177 113.579 106.801L96.3581 116.734C95.8516 117.062 95.2259 117.24 94.5705 117.24V117.24ZM108.484 97.6714C108.484 93.954 105.982 92.9725 100.678 92.2588C95.3153 91.545 94.779 91.1882 94.779 89.9391C94.779 88.8982 95.2259 87.5302 99.1885 87.5302C102.734 87.5302 104.045 88.3034 104.581 90.6826C104.641 90.9205 104.82 91.0692 105.058 91.0692H107.293C107.442 91.0692 107.561 91.0097 107.65 90.9205C107.739 90.8016 107.799 90.6826 107.769 90.5339C107.412 86.4299 104.7 84.5265 99.1885 84.5265C94.2725 84.5265 91.3527 86.6083 91.3527 90.0581C91.3527 93.835 94.2725 94.8461 98.98 95.322C104.611 95.887 105.058 96.69 105.058 97.7903C105.058 99.7234 103.509 100.526 99.8738 100.526C95.3153 100.526 94.3023 99.3963 93.9746 97.1361C93.9448 96.8982 93.7362 96.7197 93.4681 96.7197H91.2335C90.9654 96.7197 90.727 96.9279 90.727 97.2253C90.727 100.11 92.3061 103.56 99.844 103.56C105.356 103.56 108.484 101.419 108.484 97.6714V97.6714ZM124.722 82.7719C124.722 84.586 123.232 86.073 121.415 86.073C119.598 86.073 118.108 84.586 118.108 82.7719C118.108 80.8983 119.657 79.4708 121.415 79.4708C123.203 79.4411 124.722 80.8983 124.722 82.7719ZM124.186 82.7719C124.186 81.2254 122.935 80.0061 121.385 80.0061C119.866 80.0061 118.614 81.2254 118.614 82.7719C118.614 84.3183 119.866 85.5674 121.385 85.5674C122.935 85.5377 124.186 84.2886 124.186 82.7719ZM122.845 84.6157H122.07C122.041 84.4373 121.922 83.4856 121.922 83.4559C121.862 83.2477 121.802 83.1288 121.534 83.1288H120.879V84.6157H120.164V80.8983H121.445C121.892 80.8983 122.756 80.8983 122.756 81.8797C122.756 82.5637 122.309 82.7124 122.041 82.8016C122.547 82.8314 122.577 83.1585 122.666 83.6343C122.696 83.9317 122.756 84.4373 122.845 84.6157V84.6157ZM122.011 81.9987C122.011 81.4931 121.653 81.4931 121.475 81.4931H120.879V82.534H121.445C121.922 82.534 122.011 82.2068 122.011 81.9987V81.9987ZM41.2389 39.6199C41.2389 38.8169 40.8218 38.1031 40.1365 37.7165L21.8727 27.2185C21.5747 27.04 21.2172 26.9508 20.8597 26.9211H20.6809C20.3234 26.9211 19.9956 27.04 19.6679 27.2185L1.43387 37.7165C0.7486 38.1031 0.331482 38.8466 0.331482 39.6199L0.361276 67.8724C0.361276 68.259 0.569835 68.6159 0.897571 68.8241C1.22531 69.0322 1.64243 69.0322 1.99996 68.8241L12.845 62.6085C13.5303 62.1921 13.9474 61.4784 13.9474 60.7052V47.5008C13.9474 46.7276 14.3645 45.9841 15.0498 45.5975L19.6679 42.9507C20.0254 42.7425 20.383 42.6533 20.7703 42.6533C21.1576 42.6533 21.5449 42.7425 21.8727 42.9507L26.4908 45.5975C27.176 45.9841 27.5932 46.7276 27.5932 47.5008V60.7052C27.5932 61.4784 28.0103 62.2219 28.6955 62.6085L39.5406 68.8241C39.8684 69.0322 40.3153 69.0322 40.643 68.8241C40.9707 68.6456 41.1793 68.259 41.1793 67.8724L41.2389 39.6199ZM141.109 8.77998V61.2405C141.109 62.0137 140.692 62.7572 140.007 63.1438L121.743 73.6716C121.057 74.0582 120.223 74.0582 119.538 73.6716L101.274 63.1438C100.589 62.7572 100.172 62.0137 100.172 61.2405V40.1849C100.172 39.4117 100.589 38.6682 101.274 38.2816L119.538 27.7538C120.223 27.3672 121.057 27.3672 121.743 27.7538L126.301 30.3709C126.808 30.6683 127.463 30.2816 127.463 29.7166V1.76145C127.463 0.928742 128.357 0.393431 129.102 0.809784L139.977 6.87665C140.662 7.23352 141.109 7.97701 141.109 8.77998V8.77998ZM127.404 47.1142C127.404 46.906 127.284 46.7276 127.135 46.6384L120.879 43.0102C120.7 42.9209 120.491 42.9209 120.313 43.0102L114.056 46.6384C113.877 46.7276 113.788 46.906 113.788 47.1142V54.3409C113.788 54.5491 113.907 54.7275 114.056 54.8167L120.313 58.4152C120.491 58.5044 120.7 58.5044 120.849 58.4152L127.106 54.8167C127.284 54.7275 127.374 54.5491 127.374 54.3409V47.1142H127.404ZM189.912 46.906C190.597 46.5194 191.014 45.7759 191.014 45.0027V39.9172C191.014 39.144 190.597 38.4005 189.912 38.0139L171.767 27.4861C171.082 27.0995 170.248 27.0995 169.562 27.4861L151.299 38.0139C150.613 38.4005 150.196 39.144 150.196 39.9172V60.9728C150.196 61.7758 150.613 62.4895 151.299 62.8762L169.443 73.1958C170.099 73.5824 170.933 73.5824 171.618 73.1958L182.582 67.0992C183.327 66.6828 183.327 65.6122 182.582 65.1958L164.199 54.668C163.842 54.4599 163.633 54.103 163.633 53.7164V47.1142C163.633 46.7276 163.842 46.3707 164.199 46.1625L169.92 42.8615C170.248 42.6533 170.695 42.6533 171.022 42.8615L176.743 46.1625C177.071 46.3707 177.309 46.7276 177.309 47.1142V52.2889C177.309 53.1216 178.232 53.6569 178.977 53.2406L189.912 46.906V46.906ZM166.881 47.9469C166.762 48.0361 166.672 48.1551 166.672 48.3038V52.3484C166.672 52.4971 166.762 52.6458 166.881 52.7052L170.397 54.7275C170.516 54.8167 170.695 54.8167 170.814 54.7275L174.329 52.7052C174.449 52.616 174.538 52.4971 174.538 52.3484V48.3038C174.538 48.1551 174.449 48.0064 174.329 47.9469L170.814 45.9246C170.695 45.8354 170.516 45.8354 170.397 45.9246L166.881 47.9469ZM91.1441 60.8836V39.947C91.1441 39.1738 90.6674 38.4303 89.9822 38.0437L71.7779 27.5753C71.1522 27.2185 70.2882 27.159 69.5731 27.5753L51.3689 38.0437C50.6836 38.4303 50.2069 39.144 50.2069 39.947V60.8836C50.2069 61.7163 50.773 62.4301 51.3987 62.7869L69.6327 73.2552C70.3478 73.6716 71.182 73.6419 71.8375 73.2552L90.0119 62.7869C90.5482 62.4895 90.9356 61.984 91.0845 61.3892C91.1143 61.2405 91.1441 61.062 91.1441 60.8836ZM69.0071 23.739L68.7687 23.8876H69.0964L69.0071 23.739V23.739ZM91.7102 62.4598L91.591 62.2516V62.5193L91.7102 62.4598Z" fill="white"/>
</svg>
