<svg width="90" height="84" viewBox="0 0 90 84" fill="none" xmlns="http://www.w3.org/2000/svg">
<path d="M18.9062 0C13.892 0 9.08312 1.9919 5.53751 5.53751C1.9919 9.08312 0 13.892 0 18.9062V60.1562C0 65.1705 1.9919 69.9794 5.53751 73.525C9.08312 77.0706 13.892 79.0625 18.9062 79.0625H46.5919C46.2413 76.3769 46.7875 73.6507 48.1456 71.3075L49.6237 68.75H18.9062C14.1625 68.75 10.3125 64.9 10.3125 60.1562V20.625H68.75V28.8337C71.995 27.5481 75.5562 27.115 79.0625 27.6375V18.9062C79.0625 13.892 77.0706 9.08312 73.525 5.53751C69.9794 1.9919 65.1705 0 60.1562 0H18.9062ZM56.8631 52.8412C55.4718 47.9091 56.0332 42.6305 58.4306 38.1012L48.84 28.5037C48.1945 27.8592 47.3194 27.4974 46.4073 27.4981C45.4951 27.4987 44.6205 27.8617 43.9759 28.5072C43.3314 29.1527 42.9696 30.0277 42.9703 30.9399C42.9709 31.8521 43.3339 32.7267 43.9794 33.3713L55.2956 44.6875L43.9794 56.0037C43.3339 56.6483 42.9709 57.5229 42.9703 58.4351C42.9696 59.3473 43.3314 60.2223 43.9759 60.8678C44.6205 61.5133 45.4951 61.8763 46.4073 61.8769C47.3194 61.8776 48.1945 61.5158 48.84 60.8713L56.8631 52.8412V52.8412ZM35.0831 28.5037C35.4032 28.8231 35.6572 29.2024 35.8305 29.62C36.0038 30.0376 36.093 30.4853 36.093 30.9375C36.093 31.3897 36.0038 31.8374 35.8305 32.255C35.6572 32.6726 35.4032 33.0519 35.0831 33.3713L23.7669 44.6875L35.0831 56.0037C35.4027 56.3229 35.6563 56.7019 35.8295 57.1191C36.0026 57.5362 36.0919 57.9834 36.0922 58.4351C36.0925 58.8867 36.0039 59.334 35.8313 59.7515C35.6588 60.1689 35.4057 60.5482 35.0866 60.8678C34.7674 61.1874 34.3884 61.441 33.9713 61.6142C33.5541 61.7873 33.1069 61.8766 32.6552 61.8769C32.2036 61.8772 31.7563 61.7886 31.3389 61.616C30.9214 61.4435 30.5421 61.1904 30.2225 60.8713L16.4725 47.1213C16.1524 46.8019 15.8984 46.4226 15.7251 46.005C15.5518 45.5874 15.4626 45.1397 15.4626 44.6875C15.4626 44.2353 15.5518 43.7876 15.7251 43.37C15.8984 42.9524 16.1524 42.5731 16.4725 42.2537L30.2225 28.5037C30.8671 27.8593 31.7413 27.4973 32.6528 27.4973C33.5643 27.4973 34.4385 27.8593 35.0831 28.5037V28.5037ZM78.5331 34.5194L72.3456 45.2444C72.0344 45.7432 71.8267 46.2995 71.7351 46.8803C71.6435 47.4611 71.6697 48.0544 71.8123 48.6248C71.9548 49.1952 72.2108 49.731 72.5649 50.2004C72.919 50.6698 73.364 51.063 73.8734 51.3567C74.3827 51.6504 74.946 51.8385 75.5296 51.9099C76.1132 51.9812 76.7052 51.9343 77.2703 51.7719C77.8354 51.6096 78.362 51.3351 78.8187 50.9648C79.2755 50.5946 79.653 50.1361 79.9287 49.6169L86.1162 38.8987C87.8143 40.8831 88.8821 43.3286 89.1831 45.9229C89.4841 48.5172 89.0046 51.1423 87.8061 53.4627C86.6075 55.7831 84.7442 57.6934 82.4544 58.9494C80.1646 60.2054 77.5522 60.75 74.9512 60.5138L63.58 80.2106C63.2282 80.8467 62.7533 81.4062 62.1828 81.8567C61.6124 82.3072 60.958 82.6395 60.2578 82.8343C59.5575 83.029 58.8255 83.0824 58.1044 82.9912C57.3833 82.9 56.6876 82.666 56.0579 82.303C55.4283 81.94 54.8772 81.4552 54.4369 80.8769C53.9967 80.2985 53.676 79.6383 53.4937 78.9347C53.3113 78.2311 53.271 77.4983 53.375 76.7789C53.479 76.0596 53.7252 75.3681 54.0994 74.745L65.45 55.0825C63.9239 52.9524 63.0699 50.4145 62.998 47.7951C62.9261 45.1757 63.6395 42.5947 65.0464 40.3841C66.4534 38.1735 68.4895 36.4344 70.893 35.3905C73.2964 34.3465 75.9572 34.0456 78.5331 34.5262V34.5194Z" fill="#02B4A9"/>
</svg>
