<svg width="43" height="43" viewBox="0 0 43 43" fill="none" xmlns="http://www.w3.org/2000/svg">
<path d="M3.32459 23.0501L0 26.3747L11.6361 31.3616L16.6253 43L19.9499 39.6754L18.2876 31.3616L26.0771 23.5721L34.5649 41.6857L37.7132 38.5374L34.9152 14.7363L41.5644 8.08476C42.0135 7.65098 42.3718 7.1321 42.6182 6.55839C42.8647 5.98468 42.9944 5.36763 42.9998 4.74325C43.0052 4.11887 42.8863 3.49966 42.6498 2.92176C42.4134 2.34385 42.0642 1.81882 41.6227 1.3773C41.1812 0.935779 40.6561 0.586612 40.0782 0.350171C39.5003 0.113731 38.8811 -0.00524815 38.2567 0.000177546C37.6324 0.00560324 37.0153 0.135325 36.4416 0.381773C35.8679 0.62822 35.349 0.986458 34.9152 1.43558L28.0897 8.2611L4.28858 5.46083L1.31432 8.43744L19.2868 17.0663L11.6384 24.7148L3.32459 23.0501V23.0501Z" fill="white"/>
</svg>
